# xmcd CD database file
#
# Track frame offsets:
#	183
#	16300
#	27135
#	40193
#	51375
#	68893
#	81190
#	93948
#	107633
#	119465
#	131600
#	140170
#	158040
#	175055
#
# Disc length: 2485 seconds
#
# Revision: 0
# Processed by: cddbd v1.5.2PL0 Copyright (c) Steve Scherf et al.
# Submitted via: CDex 1.70beta2
#
DISCID=b909b30e
DTITLE=Errol Garner - Ain't She Sweet
DYEAR=1990
DGENRE=Jazz
TTITLE0=Ain't She Sweet
TTITLE1=Sweet geogia Brown
TTITLE2=Loot to Boot
TTITLE3=Laura
TTITLE4=Tree Top
TTITLE5=Red Sails in the Sunset
TTITLE6=On the Sunny Side of the Street
TTITLE7=Sweet Lorraine
TTITLE8=What Is this Thing Called Love
TTITLE9=Moonglow
TTITLE10=Scatterbrain
TTITLE11=These Foolish Things
TTITLE12=No Moon
TTITLE13=She's Funny that Way
EXTD=YEAR: 1990
EXTT0=
EXTT1=
EXTT2=
EXTT3=
EXTT4=
EXTT5=
EXTT6=
EXTT7=
EXTT8=
EXTT9=
EXTT10=
EXTT11=
EXTT12=
EXTT13=
PLAYORDER=
